<?xml version="1.0" encoding="UTF-8"?>
<svg id="Layer_1" data-name="Layer 1" xmlns="http://www.w3.org/2000/svg" viewBox="0 0 557.42 907.9">
  <defs>
    <style>
      .cls-1 {
        fill: #ffbf00;
      }

      .cls-1, .cls-2 {
        stroke-width: 0px;
      }

      .cls-2 {
        fill: #fff;
      }
    </style>
  </defs>
  <g>
    <path class="cls-2" d="m125.73,635.9c-7.62,8.04-16.91,12.05-27.86,12.05s-20.25-4.01-27.86-12.05c-7.62-8.03-11.43-17.82-11.43-29.38V140.89c0-11.55,4.04-21.59,12.14-30.14,8.09-8.54,17.61-12.81,28.58-12.81h234.32c9.04,0,16.66,3.27,22.86,9.79,6.18,6.53,9.29,14.57,9.29,24.11s-3.1,17.59-9.29,24.11c-6.2,6.53-13.82,9.79-22.86,9.79h-190.03c-4.29,0-6.43,2.01-6.43,6.03v151.44c0,4.52,2.14,6.78,6.43,6.78h177.17c8.57,0,15.83,3.14,21.79,9.42,5.95,6.29,8.93,13.94,8.93,22.98s-2.98,16.71-8.93,22.98c-5.96,6.29-13.22,9.42-21.79,9.42h-177.17c-4.29,0-6.43,2.26-6.43,6.78v204.94c0,11.56-3.82,21.36-11.43,29.38Z"/>
    <path class="cls-2" d="m432.05,94.93c7.86-8.03,17.02-12.06,27.5-12.06s19.65,4.03,27.5,12.06c7.86,8.04,11.79,17.84,11.79,29.38s-3.93,21.35-11.79,29.38c-7.86,8.04-17.03,12.06-27.5,12.06s-19.65-4.01-27.5-12.06c-7.86-8.03-11.79-17.82-11.79-29.38s3.93-21.34,11.79-29.38Zm55.01,540.97c-7.86,8.04-17.03,12.05-27.5,12.05s-19.65-4.01-27.5-12.05c-7.86-8.03-11.79-17.82-11.79-29.38v-308.91c0-11.55,3.93-21.34,11.79-29.38,7.86-8.03,17.02-12.05,27.5-12.05s19.65,4.03,27.5,12.05c7.86,8.04,11.79,17.84,11.79,29.38v308.91c0,11.56-3.93,21.36-11.79,29.38Z"/>
  </g>
  <ellipse class="cls-1" cx="460.14" cy="124.47" rx="40.51" ry="41.59"/>
</svg>